HIERARCHY
ROOT pelvis
{
  OFFSET 0 100 0
  CHANNELS 6 Xposition Yposition Zposition Zrotation Xrotation Yrotation
  JOINT pelvis_right_femur
  {
    OFFSET -10.78128 -3.44521 -0.5502486
    CHANNELS 3 Zrotation Xrotation Yrotation
    JOINT right_femur_tibia
    {
      OFFSET -0.8047443 -44.0398 -0.1307829
      CHANNELS 3 Zrotation Xrotation Yrotation
      JOINT right_tibia_foot
      {
        OFFSET 3.006224 -47.83518 -5
        CHANNELS 3 Zrotation Xrotation Yrotation
        End Site
        {
          OFFSET 0 -5 15
        }
      }
    }
  }
  JOINT pelvis_left_femur
  {
    OFFSET 10.78128 -3.44521 -0.5502486
    CHANNELS 3 Zrotation Xrotation Yrotation
    JOINT left_femur_tibia
    {
      OFFSET 0.8047443 -44.0398 -0.1307829
      CHANNELS 3 Zrotation Xrotation Yrotation
      JOINT left_tibia_foot
      {
        OFFSET -4.370144 -48.10324 -4.275266
        CHANNELS 3 Zrotation Xrotation Yrotation
        End Site
        {
          OFFSET 0 -5 15
        }
      }
    }
  }
  JOINT pelvis_spine1
  {
    OFFSET 0 6.468898 -3.129235
    CHANNELS 3 Zrotation Xrotation Yrotation
    JOINT spine1
    {
      OFFSET 0 23.15396 4.99043
      CHANNELS 3 Zrotation Xrotation Yrotation
      JOINT spine2
      {
        OFFSET 0 20.79997 -5.064912
        CHANNELS 3 Zrotation Xrotation Yrotation
        JOINT neck
        {
          OFFSET 0 14.38658 9.616178
          CHANNELS 3 Zrotation Xrotation Yrotation
          End Site
          {
            OFFSET 0 20 0
          }
        }
      }
      JOINT right_manubrium
      {
        OFFSET -5.722621 16.35077 3.967754
        CHANNELS 3 Zrotation Xrotation Yrotation
        JOINT right_clavicle
        {
          OFFSET -13.16364 1.694482 -4.693211
          CHANNELS 3 Zrotation Xrotation Yrotation
          JOINT right_humerus
          {
            OFFSET -28.5034 -0.3100689 -2.792744
            CHANNELS 3 Zrotation Xrotation Yrotation
            JOINT right_radius
            {
              OFFSET -25.15693 0.02248979 -1.271978
              CHANNELS 3 Zrotation Xrotation Yrotation
              End Site
              {
                OFFSET -15 0 0
              }
            }
          }
        }
      }
      JOINT left_manubrium
      {
        OFFSET 5.722621 16.35077 3.967754
        CHANNELS 3 Zrotation Xrotation Yrotation
        JOINT left_clavicle
        {
          OFFSET 13.16364 1.694482 -4.693211
          CHANNELS 3 Zrotation Xrotation Yrotation
          JOINT left_humerus
          {
            OFFSET 29.39168 -1.063119 -2.237045
            CHANNELS 3 Zrotation Xrotation Yrotation
            JOINT left_radius
            {
              OFFSET 24.59957 -0.9528479 0.9047498
              CHANNELS 3 Zrotation Xrotation Yrotation
              End Site
              {
                OFFSET 15 -0 -0
              }
            }
          }
        }
      }
    }
  }
}
MOTION
Frames: 7
Frame Time: 0.0416666666667
0 103.5113 0 0.5985951 -1.86468 0.1404797 2.679823 -15.7963 6.362684 -0 41.1392 -0 -8.130476 -13.25757 -2.495075 -6.563101 10.37765 -23.50456 -0 4.188672 -0 3.040468 -19.57738 23.44898 -0.5668613 -1.896498 4.232804 -0.4403016 7.700693 -7.03342 2.120286 22.73389 7.904649 5.254757 -22.56062 9.324682 4.64176 -18.90145 9.521478 90.35366 35.96929 -24.0854 -0 0 15.89024 -7.564777 8.969272 1.227544 7.438392 -21.74672 -2.849982 -100.3378 43.08521 27.73265 0 0 -26.26297 -9.764145 19.23527 28.65147
0.3445006 103.5474 1.13518 0.1533019 -1.371705 0.3529149 3.6588 -17.87974 6.873838 -0 41.64281 -0 -7.465899 -12.70473 -2.970391 -6.224774 9.99912 -23.25124 -0 4.169401 -0 0.9546487 -20.97586 22.30161 -0.6499128 -1.865514 4.200777 -0.2066994 7.705778 -7.127891 2.040492 22.68075 7.819115 5.13644 -22.78528 9.217135 4.756236 -18.80344 9.647983 90.11168 35.84008 -23.98662 -0 0 15.7037 -7.500003 8.851302 1.540646 7.237411 -21.61928 -2.816371 -99.97644 42.72097 27.38927 0 0 -26.0758 -9.433567 18.89859 28.21619
0.5445542 103.204 3.271011 0.3332322 -0.6174996 0.6051172 3.318745 -21.81089 6.581569 -0 33.26904 -0 -5.676468 -12.17276 -4.315589 -5.962843 12.65049 -20.96294 -0 5.677455 -0 1.277968 -21.40932 21.17347 -1.290136 -1.371265 3.922649 1.59421 7.74848 -7.745537 1.347057 22.25546 7.360269 4.349051 -24.13094 8.305381 5.736707 -17.82115 10.76911 87.95674 35.39081 -22.75569 -0 0 14.02246 -8.144845 8.88198 4.444126 5.560255 -20.55188 -2.670788 -96.73542 38.96359 24.4049 0 0 -24.21016 -6.826859 16.08183 24.49542
0.6783318 102.6806 6.040194 0.12864 0.6012464 0.8870125 4.005464 -25.87503 6.600244 -0 27.46068 -0 -4.627421 -11.0222 -4.762756 -5.852027 13.97232 -19.63234 -0 6.914861 -0 1.445899 -22.22915 20.37946 -1.543419 -1.214062 3.576052 2.323506 7.711027 -8.078549 1.124878 22.11173 7.214758 4.033327 -24.73231 8.083146 5.944338 -17.48978 11.09323 87.54682 34.81095 -22.68372 -0 0 13.35931 -7.941 8.489947 5.252585 4.947863 -20.12526 -2.717078 -95.72401 37.90514 23.36003 0 0 -23.6479 -6.200772 15.02734 23.43757
0.7572752 102.0479 9.345169 -0.2624552 1.658254 1.245813 4.831373 -29.46872 6.335626 -0 23.27689 -0 -4.239689 -9.171207 -4.82598 -5.615023 14.99428 -18.63689 -0 8.337331 -0 0.1774324 -23.4041 18.99866 -1.830735 -1.122293 3.007907 3.126811 7.583129 -8.508303 0.9421846 21.99753 7.056119 3.661024 -25.49463 7.981793 5.993722 -17.22573 11.31568 87.4649 33.85367 -22.96654 -0 0 12.70316 -7.163809 7.620625 5.773743 4.349707 -19.63796 -2.826077 -94.91442 37.30571 22.41906 0 0 -23.24666 -5.862422 14.04188 22.68319
0.784245 101.3881 13.20585 -0.8047566 2.577533 1.702245 5.712802 -32.38525 6.017239 -0 20.01105 -0 -4.227378 -7.218299 -4.869945 -5.161701 15.95136 -17.77414 -0 10.24219 -0 -2.514162 -24.52847 16.83893 -2.033759 -1.009073 2.628561 3.682726 7.495672 -8.772846 0.7847869 21.91403 6.988668 3.422644 -25.88132 7.877546 6.063778 -16.97212 11.5119 87.30798 33.42576 -23.04598 -0 0 12.14831 -7.002392 7.344289 6.300252 3.927483 -19.29595 -2.932935 -94.16478 36.58651 21.63202 0 0 -22.93836 -5.523654 13.31047 21.98217
0.7813174 100.7544 17.73408 -1.38575 3.198414 2.257878 6.481128 -34.23524 5.617109 -0 17.41707 -0 -4.359536 -5.393364 -4.9877 -4.558133 16.76402 -16.70575 -0 12.85977 -0 -5.787355 -24.71343 14.05939 -2.173281 -0.881185 2.382432 4.019755 7.432331 -8.896212 0.6552578 21.88355 7.001691 3.305826 -25.96062 7.783648 6.134258 -16.74345 11.67124 87.13283 33.37317 -22.96404 -0 0 11.71741 -7.325825 7.48575 6.789075 3.633335 -19.05973 -3.050795 -93.55408 35.87937 21.04132 0 0 -22.62746 -5.327024 12.84644 21.46797
